<?xml version="1.0" standalone="no"?>
<!DOCTYPE svg PUBLIC "-//W3C//DTD SVG 20010904//EN"
 "http://www.w3.org/TR/2001/REC-SVG-20010904/DTD/svg10.dtd">
<svg version="1.0" xmlns="http://www.w3.org/2000/svg"
 width="740.000000pt" height="740.000000pt" viewBox="0 0 740.000000 740.000000"
 preserveAspectRatio="xMidYMid meet">

<g transform="translate(0.000000,740.000000) scale(0.100000,-0.100000)"
fill="#000000" stroke="none">
<path d="M2940 6060 c-87 -29 -98 -49 -173 -309 -37 -127 -67 -242 -67 -258 0
-63 72 -130 150 -140 22 -3 40 -6 40 -7 0 0 60 -320 134 -711 l133 -709 -47
-47 c-70 -70 -80 -109 -80 -309 0 -156 1 -169 22 -195 40 -51 63 -55 362 -55
151 0 277 -4 280 -9 8 -12 8 -2239 1 -2287 -4 -24 -3 -44 3 -47 5 -4 12 27 16
76 6 78 117 1886 132 2145 l7 122 204 0 c222 0 252 6 291 55 21 26 22 39 22
195 0 200 -10 239 -80 309 l-47 47 133 709 c74 391 134 711 134 711 0 1 18 4
40 7 79 10 150 77 150 141 0 15 -30 132 -67 259 -60 202 -72 235 -100 264 -64
63 -60 63 -837 63 -661 -1 -704 -2 -756 -20z m180 -123 c-22 -11 -33 -39 -86
-222 -34 -116 -59 -213 -55 -217 3 -3 39 -13 79 -21 41 -9 77 -18 80 -22 3 -3
30 -130 58 -283 180 -951 244 -1293 244 -1306 0 -8 -23 -28 -50 -45 -81 -50
-90 -72 -90 -233 l0 -138 -71 0 -71 0 4 138 c3 156 16 190 85 230 21 12 44 25
51 30 10 7 8 35 -12 138 -14 71 -82 430 -151 799 -69 368 -127 670 -128 671
-1 1 -37 9 -81 17 -43 9 -81 19 -84 21 -3 3 21 95 53 203 32 109 60 205 62
214 7 26 43 38 118 38 63 1 67 -1 45 -12z"/>
</g>
</svg>
